<?xml version="1.0" encoding="UTF-8"?>
<svg id="Logo-Vectorizado" xmlns="http://www.w3.org/2000/svg" viewBox="0 0 842.89 596.28">
  <defs>
    <style>
      .cls-1, .cls-2, .cls-3, .cls-4 {
        fill: #fff;
      }

      .cls-2 {
        stroke-width: .25px;
      }

      .cls-2, .cls-3, .cls-4, .cls-5 {
        stroke: #000;
        stroke-miterlimit: 10;
      }

      .cls-6 {
        letter-spacing: .11em;
      }

      .cls-3, .cls-5 {
        stroke-width: 4px;
      }

      .cls-4 {
        font-family: MyriadPro-Regular, 'Myriad Pro';
        font-size: 43.32px;
      }

      .cls-7 {
        letter-spacing: .03em;
      }

      .cls-8 {
        letter-spacing: .1em;
      }

      .cls-5 {
        fill: none;
      }
    </style>
  </defs>
  <path class="cls-1" d="M443.6,185.82s-46.27-43.67-122.17-25.47c-75.9,18.2-82.66,99.3-82.66,99.3,0,0-5.2,40.55,10.92,55.63,0,0,26.51,40.66,83.18,36.97,56.67-3.69,72.15-19.29,72.15-19.29l26.63-96.18h-90.86l-10,37.95,29.63,.52-6.76,26.51h-27.03s-24.95-6.24-26.51-37.95c0,0,6.24-49.91,57.19-51.99,0,0,17.67-4.16,44.71,15.08l41.59-41.07Z"/>
  <polygon class="cls-1" points="473.76 159.83 424.89 347.51 587.09 347.51 600.61 300.2 499.23 300.2 506.51 278.36 600.61 278.36 612.05 229.49 518.47 228.45 523.14 206.62 623.48 206.62 636.48 159.83 473.76 159.83"/>
  <path class="cls-1" d="M240.85,181.14s-38.47-32.44-112.99-25.23c0,0-18.72,3.05-32.58,16.57-13.86,13.52-18.02,20.1-18.02,20.1,0,0-29.11,57.88,36.05,80.41,0,0,36.79,14,35.89,22.41-.3,2.86-1.13,6.35-14.41,6.7,0,0-30.85,1.04-59.96-24.95l-32.44,38.14s27.93,33.84,71.26,37.19,71.74-11.56,71.74-11.56c0,0,77.29-51.64-1.04-102.59,0,0-33.27-16.29-42.63-18.02,0,0-25.3-24.26,25.3-15.25,0,0,30.85,10.74,39.51,19.06l34.31-42.98Z"/>
</svg>