<?xml version="1.0" encoding="UTF-8"?>
<svg id="Logo-Vectorizado" xmlns="http://www.w3.org/2000/svg" viewBox="0 0 842.89 596.28">
  <defs>
    <style>
      .cls-1, .cls-2, .cls-3, .cls-4 {
        fill: #2F4050;
      }

      .cls-2 {
        stroke-width: .25px;
      }

      .cls-2, .cls-3, .cls-4, .cls-5 {
        stroke: #2F4050;
        stroke-miterlimit: 10;
      }

      .cls-6 {
        letter-spacing: .11em;
      }

      .cls-3, .cls-5 {
        stroke-width: 4px;
      }

      .cls-4 {
        font-family: MyriadPro-Regular, 'Myriad Pro';
        font-size: 43.32px;
      }

      .cls-7 {
        letter-spacing: .03em;
      }

      .cls-8 {
        letter-spacing: .1em;
      }

      .cls-5 {
        fill: none;
      }
    </style>
  </defs>
  <path class="cls-1" d="M443.6,185.82s-46.27-43.67-122.17-25.47c-75.9,18.2-82.66,99.3-82.66,99.3,0,0-5.2,40.55,10.92,55.63,0,0,26.51,40.66,83.18,36.97,56.67-3.69,72.15-19.29,72.15-19.29l26.63-96.18h-90.86l-10,37.95,29.63,.52-6.76,26.51h-27.03s-24.95-6.24-26.51-37.95c0,0,6.24-49.91,57.19-51.99,0,0,17.67-4.16,44.71,15.08l41.59-41.07Z"/>
  <polygon class="cls-1" points="473.76 159.83 424.89 347.51 587.09 347.51 600.61 300.2 499.23 300.2 506.51 278.36 600.61 278.36 612.05 229.49 518.47 228.45 523.14 206.62 623.48 206.62 636.48 159.83 473.76 159.83"/>
  <polygon class="cls-5" points="645.32 192.58 713.42 163.47 779.45 192.58 712.38 223.77 645.32 192.58"/>
  <line class="cls-5" x1="706.45" y1="194.19" x2="779.45" y2="193.05"/>
  <polyline class="cls-5" points="672.94 205.43 672.94 238.85 712.38 257.05 752.94 238.85 752.94 204.91"/>
  <path class="cls-2" d="M707.13,191.65s-3.78,2.34,0,4.78v-4.78Z"/>
  <polyline class="cls-3" points="781.57 192.74 781.57 209.72 781.57 213.11"/>
  <polygon class="cls-5" points="772.65 216.27 781.55 209.5 790.48 216.27 790.48 257.44 772.65 257.44 772.65 216.27"/>
  <path class="cls-5" d="M627.38,317.35l-9.1-8.84s-7.54-4.68,0-8.58l10.92-10.66s2.34-7.28,9.36,2.86l32.75,33.27s-.52,2.08,9.1,1.82,54.59,.02,54.59,.02c0,0,10.4-1.32,15.6-7.56l39.12-36.65s5.85-24.95-16.38-14.3l-37.3,35.09-50.43-.26"/>
  <path class="cls-5" d="M638.82,289.28l18.46-13.52s5.6-4.16,15.67-3.12l10.59-.17s5.46-1.13,11.44,5.11c0,0,3.12,4.68,15.6,4.68l18.46,.26s14.3-1.7,16.77,12.14"/>
  <path class="cls-5" d="M649.22,340.49s13,16.64,18.72,8.84c0,0,15.34-9.62,12.48-22.1"/>
  <polygon class="cls-5" points="636.48 330.22 636.48 326.52 640.7 326.52 640.7 330.54 636.48 330.54 636.48 330.22"/>
  <line class="cls-5" x1="772.65" y1="226.15" x2="790.48" y2="226.15"/>
  <path class="cls-1" d="M240.85,181.14s-38.47-32.44-112.99-25.23c0,0-18.72,3.05-32.58,16.57-13.86,13.52-18.02,20.1-18.02,20.1,0,0-29.11,57.88,36.05,80.41,0,0,36.79,14,35.89,22.41-.3,2.86-1.13,6.35-14.41,6.7,0,0-30.85,1.04-59.96-24.95l-32.44,38.14s27.93,33.84,71.26,37.19,71.74-11.56,71.74-11.56c0,0,77.29-51.64-1.04-102.59,0,0-33.27-16.29-42.63-18.02,0,0-25.3-24.26,25.3-15.25,0,0,30.85,10.74,39.51,19.06l34.31-42.98Z"/>
  <text class="cls-4" transform="translate(42.39 400.33)">SISTEMA DE GESTIÓN DE ESTADÍAS</text>
</svg>